<?xml version="1.0" encoding="utf-8"?>
<svg viewBox="25.372 200 449.255 100" width="449.255" height="100" xmlns="http://www.w3.org/2000/svg">
  <defs>
    <linearGradient gradientUnits="userSpaceOnUse" x1="250" y1="200" x2="250" y2="300" id="gradient-0" spreadMethod="pad" gradientTransform="matrix(0.999821, -0.01895, 0.018962, 1.000417, -10.154373, 4.325825)">
      <stop offset="0" style="stop-color: rgb(114, 160, 193);"/>
      <stop offset="1" style="stop-color: rgb(193, 181, 114);"/>
    </linearGradient>
  </defs>
  <rect x="25.372" y="200" width="449.255" height="100" style="stroke: rgb(0, 0, 0); fill: url(#gradient-0);"/>
  <g transform="matrix(1.450267, 0, 0, 1.450267, 303.378296, 203.590637)">
    <path fill="#f9dd9d" d="M32 43.455c-3.042 0-4.634-5.762-4.634-11.454S28.958 20.546 32 20.546s4.634 5.763 4.634 11.455c.001 5.691-1.591 11.454-4.634 11.454zm0-20.91c-.929 0-2.634 3.59-2.634 9.455s1.705 9.454 2.634 9.454 2.634-3.589 2.634-9.454c.001-5.865-1.705-9.455-2.634-9.455z" data-original="#f9dd9d"/>
    <path fill="#63312d" d="M32.001 43.955c-3.527 0-5.134-6.197-5.134-11.954 0-5.758 1.606-11.955 5.134-11.955S37.135 26.243 37.135 32c0 5.758-1.607 11.955-5.134 11.955zm0-22.91c-2.685 0-4.134 5.645-4.134 10.955s1.449 10.954 4.134 10.954S36.135 37.311 36.135 32c0-5.31-1.449-10.955-4.134-10.955zm0 20.91c-1.479 0-3.134-4.257-3.134-9.954 0-5.698 1.654-9.955 3.134-9.955s3.134 4.257 3.134 9.955c0 5.697-1.655 9.954-3.134 9.954zm0-18.903c-.544.235-2.134 3.223-2.134 8.949 0 5.812 1.638 8.801 2.157 8.957.473-.155 2.11-3.145 2.11-8.957.001-5.727-1.589-8.714-2.133-8.949z" data-original="#63312d"/>
    <path fill="#f9a287" d="M25.178 39.309c-1.758 0-2.559-.698-2.921-1.284-.532-.86-.733-2.417 1.328-4.953 1.387-1.706 3.51-3.486 5.978-5.012 3.41-2.109 6.872-3.368 9.26-3.368 1.757 0 2.558.698 2.92 1.284.532.86.733 2.417-1.328 4.952-1.388 1.707-3.511 3.487-5.979 5.013-3.409 2.108-6.87 3.368-9.258 3.368zm13.645-12.618c-2.001 0-5.147 1.176-8.208 3.069-2.283 1.411-4.228 3.035-5.478 4.573-1.171 1.441-1.347 2.368-1.179 2.639.1.163.474.336 1.219.336h.001c2.002 0 5.146-1.176 8.207-3.069 2.283-1.411 4.229-3.035 5.479-4.573 1.171-1.441 1.347-2.368 1.179-2.639-.101-.162-.474-.336-1.22-.336z" data-original="#f9a287"/>
    <path fill="#63312d" d="M25.178 39.809c-1.988 0-2.917-.828-3.346-1.521-.617-.999-.881-2.769 1.365-5.531 1.423-1.749 3.59-3.568 6.104-5.122 3.485-2.156 7.046-3.443 9.522-3.443 1.987 0 2.916.827 3.345 1.521.618.998.883 2.767-1.364 5.531-1.423 1.75-3.591 3.569-6.104 5.123-3.485 2.154-7.045 3.442-9.522 3.442zm13.645-14.618c-2.299 0-5.662 1.231-8.997 3.293-2.421 1.497-4.499 3.238-5.854 4.902-1.484 1.826-1.931 3.338-1.29 4.375.423.685 1.286 1.046 2.495 1.047 2.299 0 5.662-1.231 8.996-3.293 2.421-1.496 4.5-3.237 5.854-4.903 1.484-1.826 1.931-3.339 1.29-4.374-.422-.684-1.286-1.047-2.494-1.047zM25.178 37.809c-.846 0-1.415-.199-1.646-.575-.379-.608.075-1.811 1.217-3.215 1.284-1.581 3.274-3.243 5.604-4.683 3.136-1.939 6.382-3.144 8.471-3.144.844 0 1.412.198 1.645.572.378.615-.077 1.817-1.217 3.218-1.284 1.581-3.274 3.243-5.604 4.683-3.135 1.939-6.381 3.144-8.47 3.144zm-.774-1.112c.092.041.318.112.773.112 1.914 0 4.958-1.147 7.944-2.995 2.236-1.382 4.137-2.967 5.354-4.463.915-1.125 1.107-1.82 1.121-2.048-.093-.041-.32-.112-.773-.112-1.913 0-4.958 1.147-7.945 2.995-2.236 1.382-4.137 2.967-5.354 4.463-.916 1.127-1.107 1.823-1.12 2.048z" data-original="#63312d"/>
    <path fill="#84dbff" d="M38.823 39.309c-2.388 0-5.85-1.259-9.26-3.368-2.468-1.526-4.591-3.306-5.978-5.013-2.062-2.536-1.86-4.093-1.328-4.953.362-.585 1.163-1.284 2.92-1.284 2.388 0 5.849 1.259 9.259 3.368 2.468 1.526 4.591 3.306 5.979 5.012 2.061 2.535 1.859 4.093 1.328 4.953-.362.586-1.163 1.285-2.92 1.285zM25.178 26.691c-.746 0-1.12.174-1.22.336-.167.271.008 1.198 1.179 2.638 1.25 1.538 3.196 3.162 5.478 4.573 3.062 1.893 6.207 3.069 8.208 3.069.746 0 1.119-.174 1.219-.336.168-.271-.007-1.198-1.179-2.639-1.25-1.538-3.196-3.162-5.479-4.573-3.06-1.891-6.204-3.068-8.206-3.068z" data-original="#84dbff"/>
    <path fill="#63312d" d="M38.823 39.809c-2.477 0-6.037-1.287-9.522-3.443-2.514-1.554-4.682-3.374-6.104-5.123-2.247-2.764-1.982-4.533-1.364-5.531.429-.694 1.357-1.521 3.345-1.521 2.478 0 6.037 1.287 9.521 3.443 2.515 1.554 4.683 3.373 6.104 5.122 2.247 2.764 1.982 4.534 1.364 5.531-.428.694-1.356 1.522-3.344 1.522zM25.178 25.191c-1.208 0-2.071.362-2.495 1.047-.641 1.035-.194 2.548 1.29 4.374 1.354 1.665 3.433 3.406 5.854 4.903 3.335 2.063 6.698 3.293 8.997 3.293 1.208 0 2.071-.362 2.495-1.047.641-1.035.194-2.547-1.29-4.374-1.354-1.665-3.433-3.405-5.854-4.902-3.335-2.063-6.698-3.294-8.997-3.294zm13.645 12.618c-2.089 0-5.335-1.205-8.471-3.144-2.33-1.441-4.32-3.104-5.604-4.683-1.141-1.403-1.595-2.605-1.216-3.217.231-.375.801-.573 1.645-.573 2.089 0 5.335 1.205 8.47 3.144 2.329 1.439 4.319 3.102 5.604 4.683 1.14 1.401 1.595 2.604 1.218 3.217-.234.375-.802.573-1.646.573zm-14.42-10.506c.014.227.206.921 1.121 2.047 1.215 1.495 3.116 3.08 5.354 4.463 2.987 1.847 6.032 2.995 7.945 2.995.453 0 .681-.071.773-.112-.014-.228-.206-.923-1.121-2.048-1.217-1.496-3.117-3.081-5.354-4.463-2.986-1.847-6.03-2.995-7.944-2.995-.453.001-.681.073-.774.113z" data-original="#63312d"/>
    <path fill="#84dbff" d="M22.286 60.808H5.935v-13.78l4.428-4.428h11.923z" data-original="#84dbff"/>
    <path fill="#63312d" d="M22.286 61.308H5.935a.5.5 0 0 1-.5-.5v-13.78c0-.133.053-.26.146-.354l4.429-4.428a.5.5 0 0 1 .354-.146h11.923a.5.5 0 0 1 .5.5v18.208a.502.502 0 0 1-.501.5zm-15.851-1h15.352V43.1H10.57l-4.136 4.135v13.073z" data-original="#63312d"/>
    <path fill="#84dbff" d="M19.561 58.083H3.21v-13.78l4.428-4.428h11.923z" data-original="#84dbff"/>
    <path fill="#caf4ff" d="M19.561 41.875v-2H7.638l-2 2zM5.21 42.304l-2 1.999v13.78h2z" data-original="#caf4ff"/>
    <path fill="#63312d" d="M19.562 58.583H3.21a.5.5 0 0 1-.5-.5v-13.78c0-.133.053-.26.146-.354l4.429-4.428a.5.5 0 0 1 .354-.146h11.923a.5.5 0 0 1 .5.5v18.208a.5.5 0 0 1-.5.5zm-15.852-1h15.352V40.375H7.846L3.71 44.51z" data-original="#63312d"/>
    <path fill="#caf4ff" d="M7.638 44.303H3.21l4.428-4.428z" data-original="#caf4ff"/>
    <path fill="#63312d" d="M7.639 44.803H3.21a.5.5 0 0 1-.354-.854l4.429-4.428a.5.5 0 0 1 .854.354v4.428a.5.5 0 0 1-.5.5zm-3.222-1h2.722v-2.721z" data-original="#63312d"/>
    <path fill="#f8f3f3" d="M6.948 50.094h8.875a1 1 0 0 0 0-2H6.948a1 1 0 0 0 0 2zM6.948 54.709h8.875a1 1 0 0 0 0-2H6.948a1 1 0 0 0 0 2zM12.24 45.479h3.583a1 1 0 0 0 0-2H12.24a1 1 0 0 0 0 2z" data-original="#f8f3f3"/>
    <path fill="#63312d" d="M15.823 50.594H6.948c-.827 0-1.5-.673-1.5-1.5s.673-1.5 1.5-1.5h8.875c.827 0 1.5.673 1.5 1.5s-.673 1.5-1.5 1.5zm-8.875-2a.5.5 0 0 0 0 1h8.875a.5.5 0 0 0 0-1zM15.823 55.209H6.948c-.827 0-1.5-.673-1.5-1.5s.673-1.5 1.5-1.5h8.875c.827 0 1.5.673 1.5 1.5s-.673 1.5-1.5 1.5zm-8.875-2a.5.5 0 0 0 0 1h8.875a.5.5 0 0 0 0-1zM15.823 45.979H12.24c-.827 0-1.5-.673-1.5-1.5s.673-1.5 1.5-1.5h3.583c.827 0 1.5.673 1.5 1.5s-.673 1.5-1.5 1.5zm-3.583-2a.5.5 0 0 0 0 1h3.583a.5.5 0 0 0 0-1z" data-original="#63312d"/>
    <path fill="#efc36a" d="M60.7 60.808V44.105c0-1.1-.9-2-2-2h-7.19c-1.1 0-2 .9-2 2v16.703z" data-original="#efc36a"/>
    <path fill="#63312d" d="M60.699 61.308H49.51a.5.5 0 0 1-.5-.5V44.105c0-1.378 1.121-2.5 2.5-2.5h7.189c1.379 0 2.5 1.122 2.5 2.5v16.703a.5.5 0 0 1-.5.5zm-10.689-1h10.189V44.105c0-.827-.673-1.5-1.5-1.5H51.51c-.827 0-1.5.673-1.5 1.5z" data-original="#63312d"/>
    <path fill="#f9dd9d" d="M54.695 60.808V44.105c0-1.1-.9-2-2-2h-1.186c-1.1 0-2 .9-2 2v16.703z" data-original="#f9dd9d"/>
    <path fill="#ffeecf" d="M51.509 60.808V44.105c0-.961.687-1.768 1.593-1.957a2.021 2.021 0 0 0-.407-.043h-1.186c-1.1 0-2 .9-2 2v16.703z" data-original="#ffeecf"/>
    <path fill="#f9a287" d="M49.509 60.808V49.781c0-1.102-.9-2-2-2h-1.186c-1.1 0-2 .898-2 2v11.027z" data-original="#f9a287"/>
    <path fill="#ffc8bb" d="M46.324 60.808V49.781c0-.961.687-1.77 1.593-1.959a2.028 2.028 0 0 0-.407-.041h-1.186c-1.1 0-2 .898-2 2v11.027z" data-original="#ffc8bb"/>
    <path fill="#82d9ff" d="M44.324 60.808v-5.259c0-1.1-.9-2-2-2h-1.185c-1.1 0-2 .9-2 2v5.259z" data-original="#82d9ff"/>
    <path fill="#caf4ff" d="M41.14 60.808v-5.259c0-.959.686-1.768 1.592-1.957a2.031 2.031 0 0 0-.408-.043h-1.185c-1.1 0-2 .9-2 2v5.259z" data-original="#caf4ff"/>
    <path fill="#63312d" d="M54.695 61.308H49.51a.5.5 0 0 1-.5-.5V44.105c0-1.378 1.121-2.5 2.5-2.5h1.186c1.379 0 2.5 1.122 2.5 2.5v16.703a.501.501 0 0 1-.501.5zm-4.685-1h4.186V44.105c0-.827-.673-1.5-1.5-1.5H51.51c-.827 0-1.5.673-1.5 1.5z" data-original="#63312d"/>
    <path fill="#63312d" d="M49.51 61.308h-5.187a.5.5 0 0 1-.5-.5V49.781c0-1.378 1.121-2.5 2.5-2.5h1.187c1.379 0 2.5 1.122 2.5 2.5v11.027a.5.5 0 0 1-.5.5zm-4.687-1h4.187V49.781c0-.827-.673-1.5-1.5-1.5h-1.187c-.827 0-1.5.673-1.5 1.5z" data-original="#63312d"/>
    <path fill="#63312d" d="M44.323 61.308h-5.185a.5.5 0 0 1-.5-.5v-5.259c0-1.378 1.121-2.5 2.5-2.5h1.185c1.379 0 2.5 1.122 2.5 2.5v5.259a.5.5 0 0 1-.5.5zm-4.684-1h4.185v-4.759c0-.827-.673-1.5-1.5-1.5h-1.185c-.827 0-1.5.673-1.5 1.5z" data-original="#63312d"/>
    <path fill="#efc36a" d="M58.82 5.292c1.1 0 2 .899 2 2v2.844c0 1.1-.9 2-2 2H40.919c-1.1 0-2-.9-2-2V7.292c0-1.101.9-2 2-2z" data-original="#efc36a"/>
    <path fill="#63312d" d="M58.819 12.635h-17.9a2.503 2.503 0 0 1-2.5-2.5V7.292c0-1.378 1.121-2.5 2.5-2.5h17.9c1.379 0 2.5 1.122 2.5 2.5v2.844a2.502 2.502 0 0 1-2.5 2.499zm-17.9-6.843c-.827 0-1.5.673-1.5 1.5v2.844c0 .827.673 1.5 1.5 1.5h17.9c.827 0 1.5-.673 1.5-1.5V7.292c0-.827-.673-1.5-1.5-1.5z" data-original="#63312d"/>
    <path fill="#f9dd9d" d="M52.82 5.291c1.1 0 2 .9 2 2v2.844c0 1.101-.9 2-2 2H40.919c-1.1 0-2-.899-2-2V7.291c0-1.1.9-2 2-2z" data-original="#f9dd9d"/>
    <path fill="#ffeecf" d="M42.919 7.291H54.82c0-1.1-.9-2-2-2H40.919c-1.1 0-2 .9-2 2v2.844c0 1.101.9 2 2 2V9.291c0-1.1.9-2 2-2z" data-original="#ffeecf"/>
    <path fill="#f8f3f3" d="M44.879 8.712a1.022 1.022 0 1 1-2.042.002 1.022 1.022 0 0 1 2.042-.002zM49.84 7.689h-2.118a1.018 1.018 0 1 0 0 2.038h2.118a1.019 1.019 0 1 0 0-2.038z" data-original="#f8f3f3"/>
    <path fill="#63312d" d="M52.819 12.634h-11.9a2.503 2.503 0 0 1-2.5-2.5V7.291c0-1.378 1.121-2.5 2.5-2.5h11.9c1.379 0 2.5 1.122 2.5 2.5v2.844a2.502 2.502 0 0 1-2.5 2.499zm-11.9-6.843c-.827 0-1.5.673-1.5 1.5v2.844c0 .827.673 1.5 1.5 1.5h11.9c.827 0 1.5-.673 1.5-1.5V7.291c0-.827-.673-1.5-1.5-1.5z" data-original="#63312d"/>
    <path fill="#63312d" d="M43.856 10.235c-.839 0-1.521-.683-1.521-1.522s.683-1.521 1.521-1.521a1.523 1.523 0 0 1 0 3.043zm0-2.044a.522.522 0 1 0 .002 1.044.522.522 0 0 0-.002-1.044zM49.84 10.226h-2.117c-.837 0-1.519-.681-1.519-1.519s.682-1.519 1.519-1.519h2.117c.838 0 1.52.681 1.52 1.519s-.682 1.519-1.52 1.519zm-2.117-2.037a.52.52 0 0 0 0 1.038h2.117a.52.52 0 0 0 0-1.038z" data-original="#63312d"/>
    <path fill="#db785a" d="M58.82 12.136c1.1 0 2 .899 2 2v2.844c0 1.1-.9 2-2 2H40.919c-1.1 0-2-.9-2-2v-2.844c0-1.101.9-2 2-2z" data-original="#db785a"/>
    <path fill="#63312d" d="M58.819 19.48h-17.9a2.503 2.503 0 0 1-2.5-2.5v-2.844c0-1.378 1.121-2.5 2.5-2.5h17.9c1.379 0 2.5 1.122 2.5 2.5v2.844c0 1.378-1.121 2.5-2.5 2.5zm-17.9-6.844c-.827 0-1.5.673-1.5 1.5v2.844c0 .827.673 1.5 1.5 1.5h17.9c.827 0 1.5-.673 1.5-1.5v-2.844c0-.827-.673-1.5-1.5-1.5z" data-original="#63312d"/>
    <path fill="#f9a287" d="M52.82 12.135c1.1 0 2 .9 2 2v2.844c0 1.101-.9 2-2 2H40.919c-1.1 0-2-.899-2-2v-2.844c0-1.1.9-2 2-2z" data-original="#f9a287"/>
    <path fill="#ffc8bb" d="M42.919 14.135H54.82c0-1.1-.9-2-2-2H40.919c-1.1 0-2 .9-2 2v2.844c0 1.101.9 2 2 2v-2.844c0-1.099.9-2 2-2z" data-original="#ffc8bb"/>
    <path fill="#f8f3f3" d="M44.879 15.557a1.023 1.023 0 1 1-2.045-.001 1.023 1.023 0 0 1 2.045.001zM49.84 14.534h-2.118a1.018 1.018 0 1 0 0 2.038h2.118a1.019 1.019 0 1 0 0-2.038z" data-original="#f8f3f3"/>
    <path fill="#63312d" d="M52.819 19.479h-11.9a2.503 2.503 0 0 1-2.5-2.5v-2.844c0-1.378 1.121-2.5 2.5-2.5h11.9c1.379 0 2.5 1.122 2.5 2.5v2.844c0 1.378-1.121 2.5-2.5 2.5zm-11.9-6.844c-.827 0-1.5.673-1.5 1.5v2.844c0 .827.673 1.5 1.5 1.5h11.9c.827 0 1.5-.673 1.5-1.5v-2.844c0-.827-.673-1.5-1.5-1.5z" data-original="#63312d"/>
    <path fill="#63312d" d="M43.856 17.08c-.839 0-1.521-.683-1.521-1.522s.683-1.521 1.521-1.521c.84 0 1.522.683 1.522 1.521a1.523 1.523 0 0 1-1.522 1.522zm0-2.044a.522.522 0 1 0 .002 1.044.522.522 0 0 0-.002-1.044zM49.84 17.071h-2.117c-.837 0-1.519-.681-1.519-1.519s.682-1.519 1.519-1.519h2.117c.838 0 1.52.681 1.52 1.519s-.682 1.519-1.52 1.519zm-2.117-2.037a.52.52 0 0 0 0 1.038h2.117a.52.52 0 0 0 0-1.038z" data-original="#63312d"/>
    <path fill="#d1d1d1" d="M25.163 18.704c0 1.1-.9 2-2 2h-11.9c-1.101 0-2-.9-2-2V5.208c0-1.1.899-2 2-2h11.901c1.1 0 2 .9 2 2v13.496z" data-original="#d1d1d1"/>
    <path fill="#52b8d9" d="M25.163 5.208c0-1.1-.9-2-2-2h-11.9c-1.101 0-2 .9-2 2v3.423h15.901V5.208z" data-original="#52b8d9"/>
    <path fill="#63312d" d="M25.163 9.131h-15.9a.5.5 0 0 1-.5-.5V5.208c0-1.378 1.121-2.5 2.5-2.5h11.9c1.379 0 2.5 1.122 2.5 2.5v3.423a.5.5 0 0 1-.5.5zm-15.4-1h14.9V5.208c0-.827-.673-1.5-1.5-1.5h-11.9c-.827 0-1.5.673-1.5 1.5z" data-original="#63312d"/>
    <path fill="#63312d" d="M23.163 21.204h-11.9a2.503 2.503 0 0 1-2.5-2.5V5.208c0-1.378 1.121-2.5 2.5-2.5h11.9c1.379 0 2.5 1.122 2.5 2.5v13.496c0 1.379-1.121 2.5-2.5 2.5zm-11.9-17.496c-.827 0-1.5.673-1.5 1.5v13.496c0 .827.673 1.5 1.5 1.5h11.9c.827 0 1.5-.673 1.5-1.5V5.208c0-.827-.673-1.5-1.5-1.5z" data-original="#63312d"/>
    <path fill="#f8f3f3" d="M19.163 18.704c0 1.1-.9 2-2 2h-11.9c-1.101 0-2-.9-2-2V5.208c0-1.1.899-2 2-2h11.901c1.1 0 2 .9 2 2v13.496z" data-original="#f8f3f3"/>
    <path fill="#84dbff" d="M19.163 5.208c0-1.1-.9-2-2-2h-11.9c-1.101 0-2 .9-2 2v3.423h15.901V5.208z" data-original="#84dbff"/>
    <path fill="#caf4ff" d="M5.263 7.208c0-1.1.899-2 2-2h11.901c0-1.1-.9-2-2-2H5.263c-1.101 0-2 .9-2 2v3.423h2z" data-original="#caf4ff"/>
    <path fill="#f9dd9d" d="M8.432 5.919a1.023 1.023 0 1 1-2.046-.002 1.023 1.023 0 0 1 2.046.002z" data-original="#f9dd9d"/>
    <path fill="#63312d" d="M7.409 7.442a1.522 1.522 0 1 1 .003-3.041 1.522 1.522 0 0 1-.003 3.041zm0-2.044a.522.522 0 1 0 .002 1.044.522.522 0 0 0-.002-1.044z" data-original="#63312d"/>
    <path fill="#f9dd9d" d="M12.235 5.919a1.023 1.023 0 1 1-2.045-.001 1.023 1.023 0 0 1 2.045.001z" data-original="#f9dd9d"/>
    <path fill="#63312d" d="M11.213 7.442c-.839 0-1.521-.683-1.521-1.522s.683-1.521 1.521-1.521c.84 0 1.522.683 1.522 1.521 0 .839-.682 1.522-1.522 1.522zm0-2.044a.522.522 0 1 0 .002 1.044.522.522 0 0 0-.002-1.044z" data-original="#63312d"/>
    <path fill="#f9dd9d" d="M16.038 5.919a1.023 1.023 0 1 1-2.045-.001 1.023 1.023 0 0 1 2.045.001z" data-original="#f9dd9d"/>
    <g fill="#63312d">
      <path d="M15.016 7.442c-.839 0-1.521-.683-1.521-1.522s.683-1.521 1.521-1.521c.84 0 1.522.683 1.522 1.521 0 .839-.683 1.522-1.522 1.522zm0-2.044a.522.522 0 1 0 .002 1.044.522.522 0 0 0-.002-1.044z" fill="#63312d" data-original="#63312d"/>
      <path d="M19.163 9.131h-15.9a.5.5 0 0 1-.5-.5V5.208c0-1.378 1.121-2.5 2.5-2.5h11.9c1.379 0 2.5 1.122 2.5 2.5v3.423a.5.5 0 0 1-.5.5zm-15.4-1h14.9V5.208c0-.827-.673-1.5-1.5-1.5h-11.9c-.827 0-1.5.673-1.5 1.5z" fill="#63312d" data-original="#63312d"/>
      <path d="M17.163 21.204h-11.9a2.503 2.503 0 0 1-2.5-2.5V5.208c0-1.378 1.121-2.5 2.5-2.5h11.9c1.379 0 2.5 1.122 2.5 2.5v13.496c0 1.379-1.121 2.5-2.5 2.5zM5.263 3.708c-.827 0-1.5.673-1.5 1.5v13.496c0 .827.673 1.5 1.5 1.5h11.9c.827 0 1.5-.673 1.5-1.5V5.208c0-.827-.673-1.5-1.5-1.5zM30.271 15.458a.5.5 0 0 1-.32-.116l-3.079-2.569a.499.499 0 0 1 0-.768l3.077-2.567a.499.499 0 0 1 .82.384v1.067l4.624-.001c.4 0 .777.156 1.061.439a1.502 1.502 0 0 1-1.061 2.561l-4.622.002v1.068a.5.5 0 0 1-.5.5zm-2.298-3.069 1.799 1.501v-.5a.5.5 0 0 1 .5-.5l5.122-.001v-.001a.5.5 0 0 0 0-1l-5.124.001a.498.498 0 0 1-.5-.5v-.499zM33.73 54.678a.5.5 0 0 1-.5-.5v-1.067l-4.624.001c-.4 0-.777-.156-1.061-.439a1.502 1.502 0 0 1 1.061-2.561l4.624-.002v-1.068a.5.5 0 0 1 .82-.384l3.077 2.569a.5.5 0 0 1 0 .768l-3.077 2.567a.492.492 0 0 1-.32.116zm0-2.567a.498.498 0 0 1 .5.5v.499l1.797-1.499-1.797-1.5v.5a.5.5 0 0 1-.5.5l-5.124.001v.001a.5.5 0 0 0 0 1zM12.39 37.308a.5.5 0 0 1-.384-.18l-2.567-3.077a.5.5 0 0 1 .384-.82h1.067l-.001-4.624c0-.4.156-.777.439-1.061a1.502 1.502 0 0 1 2.561 1.061l.002 4.623h1.068a.5.5 0 0 1 .384.82l-2.569 3.078a.5.5 0 0 1-.384.18zm-1.499-3.078 1.499 1.797 1.501-1.798h-.5a.5.5 0 0 1-.5-.5l-.001-5.123h-.001c0-.408-.56-.644-.854-.353a.495.495 0 0 0-.146.353l.001 5.124a.498.498 0 0 1-.5.5zM51.612 36.894c-.827 0-1.5-.673-1.5-1.5l-.002-4.623h-1.068a.5.5 0 0 1-.384-.82l2.569-3.078a.499.499 0 0 1 .768 0l2.567 3.077a.5.5 0 0 1-.384.82h-1.067l.001 4.624a1.496 1.496 0 0 1-1.5 1.5zm-1.502-7.123h.5a.5.5 0 0 1 .5.5l.001 5.123h.001c.001.41.561.646.854.353a.495.495 0 0 0 .146-.353l-.001-5.124a.498.498 0 0 1 .5-.5h.499l-1.499-1.797z" fill="#63312d" data-original="#63312d"/>
    </g>
  </g>
  <g transform="matrix(0.171371, 0, 0, 0.171371, 206.228928, 207.503586)">
    <path fill="#ef7385" d="M8 424h32v64H8zM136 392h32v96h-32zM72 408h32v80H72z" data-original="#ef7385"/>
    <path fill="#fcd770" d="m146.76 284.51 3.87 2.58c-11.66 5.7-24.77 8.91-38.63 8.91-48.6 0-88-39.4-88-88h48c0 22.09 17.91 40 40 40 5.81 0 11.31-1.25 16.29-3.47a42.144 42.144 0 0 0 18.47 39.98zM472 72v112c0 8.84-7.16 16-16 16h-64c-8.84 0-16-7.16-16-16V72c0-8.84 7.16-16 16-16h64c8.84 0 16 7.16 16 16zM424 360c35.35 0 64 28.65 64 64 0 17.68-7.16 33.68-18.74 45.26l-.01-.01L424 424z" data-original="#fcd770" class=""/>
    <path fill="#b4dd7f" d="m469.25 469.25.01.01C457.68 480.84 441.68 488 424 488c-35.35 0-64-28.65-64-64h64z" data-original="#b4dd7f" class="hovered-path"/>
    <path fill="#f0d0b4" d="M432 232c8.84 0 16 7.16 16 16 0 4.42-1.79 8.42-4.68 11.32-2.9 2.89-6.9 4.68-11.32 4.68h-16v-32z" data-original="#f0d0b4"/>
    <path fill="#ef7385" d="M424 360v64h-64c0-35.35 28.65-64 64-64z" data-original="#ef7385"/>
    <path fill="#b4dd7f" d="M352 232h64v32c0 8.84-7.16 16-16 16h-46.7c-15.11 0-28.52-9.67-33.3-24v88c0 6.62-2.69 12.62-7.03 16.97-4.35 4.34-10.35 7.03-16.97 7.03l-8-56c-10.52-21.04-16-44.25-16-67.78V240l32-24-10.21-35.74v-.01l4.96.71a48.001 48.001 0 0 1 33.15 20.9z" data-original="#b4dd7f" class="hovered-path"/>
    <path fill="#656d78" d="M320 56a48.067 48.067 0 0 1-7.81 26.25c-2.4-1.43-5.2-2.25-8.19-2.25h-23.95a30.77 30.77 0 0 1-29.88-23.34c-.64-2.54-2.1-4.71-4.06-6.24S241.7 48 239.07 48c-4.33 0-8.29 2.45-10.23 6.32L224 64h-4.56C213.12 64 208 69.12 208 75.44V80h-16c-2.99 0-5.79.82-8.19 2.25A48.04 48.04 0 0 1 176 56c0-13.26 5.37-25.26 14.06-33.94C198.74 13.37 210.74 8 224 8h48c26.51 0 48 21.49 48 48z" data-original="#656d78"/>
    <path fill="#f0d0b4" d="M312.19 82.25c4.68 2.79 7.81 7.9 7.81 13.75 0 4.42-1.79 8.42-4.68 11.32-2.9 2.89-6.9 4.68-11.32 4.68h-16V80h16c2.99 0 5.79.82 8.19 2.25z" data-original="#f0d0b4"/>
    <path fill="#a0d468" d="M293.79 180.26 304 216l-32 24v-62.86l21.79 3.11z" data-original="#a0d468"/>
    <path fill="#d3a06c" d="M248 480c0-6.62-2.68-12.62-7.03-16.97A23.927 23.927 0 0 0 224 456c-6.62 0-12.62 2.69-16.97 7.03-4.34 4.35-7.03 10.35-7.03 16.97V368l8-56h80l8 56v112c0-6.62-2.68-12.62-7.03-16.97A23.927 23.927 0 0 0 272 456c-6.62 0-12.62 2.69-16.97 7.03-4.34 4.35-7.03 10.35-7.03 16.97z" data-original="#d3a06c"/>
    <path fill="#969faa" d="M296 480c0 2.21-.9 4.21-2.34 5.66A8.014 8.014 0 0 1 288 488h-32c-4.42 0-8-3.58-8-8 0-6.62 2.69-12.62 7.03-16.97 4.35-4.34 10.35-7.03 16.97-7.03 6.63 0 12.63 2.69 16.97 7.03A23.92 23.92 0 0 1 296 480z" data-original="#969faa"/>
    <path fill="#f0d0b4" d="M288 112v10.59a39.97 39.97 0 0 1-17.81 33.28l-2.63 1.76a8.002 8.002 0 0 0-3.56 6.65V176l-16 24-16-24v-11.72c0-2.67-1.34-5.17-3.56-6.65l-2.63-1.76A39.97 39.97 0 0 1 208 122.59V75.44c0-6.32 5.12-11.44 11.44-11.44H224l4.84-9.68A11.45 11.45 0 0 1 239.07 48c2.63 0 5.08.89 7.04 2.42s3.42 3.7 4.06 6.24A30.77 30.77 0 0 0 280.05 80H288z" data-original="#f0d0b4"/>
    <path fill="#e6e9ed" d="M288 312h-80c10.52-21.04 16-44.25 16-67.78v-67.08l8-1.14 16 24 16-24 8 1.14v67.08c0 23.53 5.48 46.74 16 67.78z" data-original="#e6e9ed"/>
    <path fill="#969faa" d="M248 480c0 2.21-.9 4.21-2.34 5.66A8.014 8.014 0 0 1 240 488h-32c-4.42 0-8-3.58-8-8 0-6.62 2.69-12.62 7.03-16.97 4.35-4.34 10.35-7.03 16.97-7.03 6.63 0 12.63 2.69 16.97 7.03A23.92 23.92 0 0 1 248 480z" data-original="#969faa"/>
    <path fill="#b4dd7f" d="m176 304-25.37-16.91-3.87-2.58a42.144 42.144 0 0 1-18.47-39.98c.45-3.87 1.44-7.64 2.92-11.2 2.09-5.07 5.18-9.72 9.13-13.67L152 208l12.69-12.69a48.007 48.007 0 0 1 27.15-13.57l3.99-.57 6.38-.91L192 216l32 24v4.22c0 23.53-5.48 46.74-16 67.78l-8 56c-6.62 0-12.62-2.69-16.97-7.03-4.34-4.35-7.03-10.35-7.03-16.97z" data-original="#b4dd7f" class="hovered-path"/>
    <path fill="#a0d468" d="M224 177.14V240l-32-24 10.21-35.74z" data-original="#a0d468"/>
    <path fill="#f0d0b4" d="M208 80v32h-16c-4.42 0-8.42-1.79-11.32-4.68-2.89-2.9-4.68-6.9-4.68-11.32 0-5.85 3.13-10.96 7.81-13.75 2.4-1.43 5.2-2.25 8.19-2.25z" data-original="#f0d0b4"/>
    <path fill="#e6e9ed" d="m195.83 181.17-3.99.57a48.007 48.007 0 0 0-27.15 13.57L152 208c0-22.09-17.91-40-40-40v-48c39.24 0 72.48 25.69 83.83 61.17z" data-original="#e6e9ed"/>
    <circle cx="160" cy="48" r="16" fill="#ef7385" data-original="#ef7385"/>
    <path fill="#ef7385" d="M112 120v48c-22.09 0-40 17.91-40 40H24c0-48.6 39.4-88 88-88z" data-original="#ef7385"/>
    <circle cx="96" cy="48" r="16" fill="#ef7385" data-original="#ef7385"/>
    <circle cx="32" cy="48" r="16" fill="#ef7385" data-original="#ef7385"/>
    <path d="M353.298 288H400c10.429 0 19.321-6.689 22.624-16H432c13.234 0 24-10.767 24-24 0-13.234-10.766-24-24-24h-75.719l-17.72-26.581a56.063 56.063 0 0 0-38.675-24.374L272 169.062v-4.78l2.625-1.75A47.903 47.903 0 0 0 296 122.593V120h8c13.234 0 24-10.766 24-24a23.89 23.89 0 0 0-5.667-15.466A55.854 55.854 0 0 0 328 56c0-30.878-25.122-56-56-56h-48c-21.165 0-39.622 11.805-49.142 29.173A23.873 23.873 0 0 0 160 24c-13.234 0-24 10.766-24 24s10.766 24 24 24c3.472 0 6.771-.747 9.754-2.08a55.739 55.739 0 0 0 3.914 10.614A23.886 23.886 0 0 0 168 96c0 13.234 10.766 24 24 24h8v2.593a47.902 47.902 0 0 0 21.374 39.938l2.626 1.75v4.78l-22.864 3.267C186.646 135.98 151.646 112 112 112c-52.935 0-96 43.065-96 96s43.065 96 96 96c13.201 0 25.927-2.622 37.9-7.785l18.1 12.066V344c0 14.883 10.214 27.426 24 30.987V480c0 8.822 7.178 16 16 16h32c2.916 0 5.643-.797 8-2.165a15.883 15.883 0 0 0 8 2.165h32c8.822 0 16-7.178 16-16V374.987c13.786-3.561 24-16.104 24-30.987v-64.192A43.036 43.036 0 0 0 353.298 288zM432 240c4.411 0 8 3.589 8 8s-3.589 8-8 8h-8v-16zm-137.205-27.096L280 224v-37.633l7.519 1.074zM240 336v116.305c-4.711-2.732-10.173-4.305-16-4.305s-11.289 1.573-16 4.305v-83.736L214.938 320h66.124L288 368.569v83.736c-4.711-2.732-10.173-4.305-16-4.305s-11.29 1.573-16 4.305V336zm-31.52-148.559 7.52-1.074V224l-14.795-11.096zM220.354 304C227.989 285.06 232 264.634 232 244.223v-53.802l16 24.001 16-24v53.801c0 20.411 4.011 40.837 11.646 59.777zM304 104h-8V88h8c4.411 0 8 3.589 8 8s-3.589 8-8 8zM160 56c-4.411 0-8-3.589-8-8s3.589-8 8-8 8 3.589 8 8-3.589 8-8 8zm32 48c-4.411 0-8-3.589-8-8s3.589-8 8-8h8v16zm8.322-32H192c-1.525 0-3.015.149-4.462.422A39.882 39.882 0 0 1 184 56c0-22.056 17.944-40 40-40h48c22.056 0 40 17.944 40 40a39.882 39.882 0 0 1-3.538 16.422A24.039 24.039 0 0 0 304 72H280.054a22.775 22.775 0 0 1-22.127-17.276A19.41 19.41 0 0 0 239.069 40c-7.41 0-14.072 4.117-17.386 10.745l-2.629 5.259c-9.373.182-17.124 7.036-18.732 15.996zM216 122.593V75.438A3.442 3.442 0 0 1 219.438 72h9.506l7.049-14.1a3.42 3.42 0 0 1 3.076-1.9 3.432 3.432 0 0 1 3.335 2.604A38.752 38.752 0 0 0 280 88v34.593a31.933 31.933 0 0 1-14.25 26.625l-2.625 1.75A15.97 15.97 0 0 0 256 164.281v9.297l-8 12-8-12v-9.297a15.971 15.971 0 0 0-7.125-13.313l-2.626-1.75A31.936 31.936 0 0 1 216 122.593zm-31.109 52.389c-9.726 2.477-18.751 7.563-25.862 14.675l-1.924 1.924c-5.836-15.982-19.939-28.008-37.106-30.901v-32.27c28.501 2.817 53.156 20.543 64.892 46.572zm-63.716 63.667A31.778 31.778 0 0 1 112 240c-17.645 0-32-14.355-32-32s14.355-32 32-32c16.58 0 30.252 12.675 31.843 28.844l-9.159 9.159c-6.868 6.867-11.484 15.38-13.509 24.646zM104 128.401v32.278C83.933 164.062 68.062 179.933 64.679 200H32.401c3.764-37.738 33.861-67.835 71.599-71.599zM32.401 216h32.278c3.821 22.671 23.58 40 47.321 40a48.08 48.08 0 0 0 8.346-.739 49.972 49.972 0 0 0 14.229 29.517C127.303 286.918 119.751 288 112 288c-41.412 0-75.572-31.63-79.599-72zM184 344V232h-16v17.052l-11.564-7.709-8.875 13.313L168 268.281v20.771l-16.801-11.201a34.067 34.067 0 0 1-15.199-28.4c0-9.117 3.55-17.688 9.997-24.135l24.346-24.346c5.636-5.636 12.955-9.496 20.774-10.999l-8.321 29.124L216 244v.223c0 22.169-5.241 44.37-15.155 64.199l-.581 1.161-6.991 48.934C187.802 355.972 184 350.421 184 344zm24 136c0-8.822 7.178-16 16-16 8.752 0 15.877 7.067 16 15.793V480zm48 0c0-8.822 7.178-16 16-16 8.755 0 15.882 7.072 16 15.802V480zm56-136c0 6.421-3.802 11.972-9.273 14.517l-6.991-48.934-.581-1.161C285.241 288.593 280 266.393 280 244.223V244l33.205-24.904-8.109-28.382a40.04 40.04 0 0 1 20.153 15.581l17.52 26.28-5.924 11.848 14.311 7.156L356.944 240H408v24c0 4.411-3.589 8-8 8h-46.702A27.047 27.047 0 0 1 328 254.557V232h-16z" fill="#000000" data-original="#000000" class=""/>
    <path d="M392 208h64c13.234 0 24-10.766 24-24V72c0-13.234-10.766-24-24-24h-64c-13.234 0-24 10.766-24 24v112c0 13.234 10.766 24 24 24zm64-16h-64c-4.411 0-8-3.589-8-8v-24h80v24c0 4.411-3.589 8-8 8zm-72-48v-32h80v32zm8-80h64c4.411 0 8 3.589 8 8v24h-80V72c0-4.411 3.589-8 8-8zM128 480h-16v-80H64v80H48v-64H0v80h176V384h-48zm-96 0H16v-48h16zm48-64h16v64H80zm64-16h16v80h-16zM424 352c-39.701 0-72 32.299-72 72s32.299 72 72 72 72-32.299 72-72-32.299-72-72-72zm56 72c0 12.56-4.157 24.167-11.167 33.519L432 420.686v-52.105c27.101 3.894 48 27.257 48 55.419zm-64-55.419V416h-47.419c3.519-24.487 22.932-43.9 47.419-47.419zM368.581 432h52.105l36.833 36.833C448.167 475.843 436.56 480 424 480c-28.162 0-51.525-20.898-55.419-48zM16 320h96v16H16zM16 352h16v16H16zM48 352h64v16H48zM32 72c13.234 0 24-10.766 24-24S45.234 24 32 24 8 34.766 8 48s10.766 24 24 24zm0-32c4.411 0 8 3.589 8 8s-3.589 8-8 8-8-3.589-8-8 3.589-8 8-8zM96 72c13.234 0 24-10.766 24-24s-10.766-24-24-24-24 10.766-24 24 10.766 24 24 24zm0-32c4.411 0 8 3.589 8 8s-3.589 8-8 8-8-3.589-8-8 3.589-8 8-8z" fill="#000000" data-original="#000000" class=""/>
  </g>
  <g transform="matrix(1.370968, 0, 0, 1.370968, 98.386703, 206.125427)">
    <rect width="60" height="46" x="2" y="2" fill="#94a4ad" rx="4" data-original="#94a4ad"/>
    <path fill="#6dc2f2" d="M6 6h52v34H6z" data-original="#6dc2f2"/>
    <path fill="#f0f2f3" d="M10 10h36v24H10z" data-original="#f0f2f3"/>
    <path fill="#94a4ad" d="M22 56h20a3 3 0 0 1 3 3v3H19v-3a3 3 0 0 1 3-3z" data-original="#94a4ad"/>
    <path fill="#b3bec4" d="M25 48h14v8H25z" data-original="#b3bec4"/>
    <path fill="#ffffff" d="M48 22.942a4.057 4.057 0 0 0 2.266 3.6A5 5 0 0 1 53 31a5 5 0 0 1-5 5h-4a5 5 0 0 1-5-5 5 5 0 0 1 2.734-4.458 4.057 4.057 0 0 0 2.266-3.6V16h4z" data-original="#ffffff"/>
    <path fill="#4596ec" d="M39 31a5 5 0 0 0 5 5h4a5 5 0 0 0 4.58-7H39.42a4.978 4.978 0 0 0-.42 2z" data-original="#4596ec"/>
    <g fill="#e25241">
      <circle cx="16" cy="24" r="2" fill="#e25241" data-original="#e25241"/>
      <circle cx="22" cy="18" r="2" fill="#e25241" data-original="#e25241"/>
      <circle cx="32" cy="28" r="2" fill="#e25241" data-original="#e25241"/>
    </g>
    <path d="M58 1H6a5.006 5.006 0 0 0-5 5v38a5.006 5.006 0 0 0 5 5h18v6h-2a4 4 0 0 0-4 4v3a1 1 0 0 0 1 1h26a1 1 0 0 0 1-1v-3a4 4 0 0 0-4-4h-2v-6h18a5.006 5.006 0 0 0 5-5V6a5.006 5.006 0 0 0-5-5zM44 59v2H20v-2a2 2 0 0 1 2-2h20a2 2 0 0 1 2 2zm-6-4H26v-6h12zm23-11a3 3 0 0 1-3 3H6a3 3 0 0 1-3-3V6a3 3 0 0 1 3-3h52a3 3 0 0 1 3 3z" fill="#000000" data-original="#000000"/>
    <path d="M58 5H6a1 1 0 0 0-1 1v34a1 1 0 0 0 1 1h52a1 1 0 0 0 1-1V6a1 1 0 0 0-1-1zm-1 34H7V7h50zM57 43h2v2h-2zM53 43h2v2h-2z" fill="#000000" data-original="#000000"/>
    <path d="M10 35h29.54A5.983 5.983 0 0 0 44 37h4a6 6 0 0 0 2.721-11.349A3.059 3.059 0 0 1 49 22.942V16a1 1 0 0 0-1-1h-1v-5a1 1 0 0 0-1-1H10a1 1 0 0 0-1 1v24a1 1 0 0 0 1 1zm38 0h-4a3.986 3.986 0 0 1-3.869-5h11.738A3.986 3.986 0 0 1 48 35zm1.812-7.567a4.03 4.03 0 0 1 .828.567h-9.28a4.05 4.05 0 0 1 .827-.567A5.048 5.048 0 0 0 45 22.942V17h2v5.942a5.049 5.049 0 0 0 2.812 4.491zM11 11h34v4h-1a1 1 0 0 0-1 1v6.942a3.059 3.059 0 0 1-1.721 2.709A5.977 5.977 0 0 0 38.35 33H11zM49 12h2v2h-2zM53 9h2v2h-2zM52 16h2v2h-2z" fill="#000000" data-original="#000000"/>
    <path d="M32 25a2.951 2.951 0 0 0-1.285.3L24.7 19.285A2.951 2.951 0 0 0 25 18a3 3 0 0 0-6 0 2.951 2.951 0 0 0 .3 1.285L17.285 21.3A2.951 2.951 0 0 0 16 21a3 3 0 1 0 3 3 2.951 2.951 0 0 0-.3-1.285l2.015-2.015a2.893 2.893 0 0 0 2.57 0l6.015 6.015A2.951 2.951 0 0 0 29 28a3 3 0 1 0 3-3zm-16 0a1 1 0 1 1 1-1 1 1 0 0 1-1 1zm5-7a1 1 0 1 1 1 1 1 1 0 0 1-1-1zm11 11a1 1 0 1 1 1-1 1 1 0 0 1-1 1zM26 13h15v2H26zM28 17h13v2H28z" fill="#000000" data-original="#000000"/>
    <path d="M30 21h11v2H30z" fill="#000000" data-original="#000000"/>
  </g>
</svg>